<?xml version="1.0" standalone="no"?><svg xmlns="http://www.w3.org/2000/svg" viewBox="0 0 1440 320"><path fill="#0F0C23" fill-opacity="1" d="M0,160L20,170.7C40,181,80,203,120,218.7C160,235,200,245,240,229.3C280,213,320,171,360,138.7C400,107,440,85,480,106.7C520,128,560,192,600,197.3C640,203,680,149,720,112C760,75,800,53,840,85.3C880,117,920,203,960,218.7C1000,235,1040,181,1080,144C1120,107,1160,85,1200,117.3C1240,149,1280,235,1320,240C1360,245,1400,171,1420,133.3L1440,96L1440,320L1420,320C1400,320,1360,320,1320,320C1280,320,1240,320,1200,320C1160,320,1120,320,1080,320C1040,320,1000,320,960,320C920,320,880,320,840,320C800,320,760,320,720,320C680,320,640,320,600,320C560,320,520,320,480,320C440,320,400,320,360,320C320,320,280,320,240,320C200,320,160,320,120,320C80,320,40,320,20,320L0,320Z"></path></svg>